<svg xmlns="http://www.w3.org/2000/svg" width="600" height="300" viewBox="0 0 600 300">
  <defs>
    <radialGradient id="glow" cx="50%" cy="30%" r="60%"><stop offset="0%" stop-color="#8B5CF6" stop-opacity="0.25"/><stop offset="100%" stop-color="#050505" stop-opacity="0"/></radialGradient>
    <linearGradient id="line" x1="0%" y1="0%" x2="100%" y2="0%"><stop offset="0%" stop-color="transparent"/><stop offset="50%" stop-color="rgba(139,92,246,0.15)"/><stop offset="100%" stop-color="transparent"/></linearGradient>
  </defs>
  <rect width="600" height="300" fill="#050505"/>
  <rect width="600" height="300" fill="url(#glow)"/>
  <line x1="0" y1="60" x2="600" y2="60" stroke="url(#line)" stroke-width="1"/>
  <line x1="0" y1="240" x2="600" y2="240" stroke="url(#line)" stroke-width="1"/>
  <rect x="40" y="80" width="520" height="140" rx="12" fill="rgba(139,92,246,0.04)" stroke="rgba(139,92,246,0.08)" stroke-width="1"/>
  <text x="300" y="125" font-family="system-ui, sans-serif" font-size="48" text-anchor="middle" fill="#FFFFFF" font-weight="700" letter-spacing="-1">CodeWeaver</text>
  <text x="300" y="158" font-family="system-ui, sans-serif" font-size="13" text-anchor="middle" fill="#A1A1AA" letter-spacing="0.5">Security / Smart Contract Auditing</text>
  <line x1="220" y1="175" x2="380" y2="175" stroke="rgba(139,92,246,0.2)" stroke-width="1"/>
  <text x="300" y="198" font-family="monospace" font-size="11" text-anchor="middle" fill="rgba(255,255,255,0.4)" letter-spacing="1">VULNERABILITY DETECTION · SOLIDITY</text>
  <rect x="60" y="252" width="12" height="16" rx="2" fill="rgba(139,92,246,0.2)"/>
  <rect x="80" y="252" width="12" height="16" rx="2" fill="rgba(139,92,246,0.15)"/>
  <rect x="100" y="252" width="12" height="16" rx="2" fill="rgba(139,92,246,0.1)"/>
  <line x1="500" y1="260" x2="540" y2="260" stroke="rgba(139,92,246,0.2)" stroke-width="1"/>
  <line x1="500" y1="268" x2="530" y2="268" stroke="rgba(139,92,246,0.1)" stroke-width="1"/>
  <line x1="500" y1="252" x2="520" y2="252" stroke="rgba(139,92,246,0.15)" stroke-width="1"/>
</svg>
